/* XPM */
static char *result[] = {
/* columns rows colors chars-per-pixel */
"50 50 226 2 ",
"   c #7F1311",
".  c #930B0A",
"X  c #9D0B0C",
"o  c #960606",
"O  c #9B1609",
"+  c #8F0910",
"@  c #831114",
"#  c #8C1A1D",
"$  c #831C1F",
"%  c #931311",
"&  c #9B1313",
"*  c #9A1C1A",
"=  c #95161C",
"-  c #8F0B0D",
";  c #A3060B",
":  c #A40C0E",
">  c #AB080B",
",  c #A30C13",
"<  c #AD0C13",
"1  c #AA0E19",
"2  c #B20C14",
"3  c #B70E18",
"4  c #A51313",
"5  c #AB1215",
"6  c #A21C14",
"7  c #A3121B",
"8  c #AD1619",
"9  c #A61E1D",
"0  c #AC191B",
"q  c #B31315",
"w  c #B31319",
"e  c #B31917",
"r  c #AC130E",
"t  c #862418",
"y  c #99221A",
"u  c #A42A1C",
"i  c #A72517",
"p  c #891722",
"a  c #931D24",
"s  c #AC1B20",
"d  c #852928",
"f  c #952427",
"g  c #8D302B",
"h  c #94352C",
"j  c #9B3123",
"k  c #9D2836",
"l  c #853537",
"z  c #97383A",
"x  c #A82627",
"c  c #B42423",
"v  c #B5262A",
"b  c #B82A2A",
"n  c #AA3525",
"m  c #AB2F31",
"M  c #A43339",
"N  c #BB3D33",
"B  c #BA3535",
"V  c #B8332C",
"C  c #C53538",
"Z  c #C32428",
"A  c #98473C",
"S  c #AF4132",
"D  c #BA423D",
"F  c #B64734",
"G  c #C4513E",
"H  c #CD4938",
"J  c #993D40",
"K  c #A43B42",
"L  c #9A494C",
"P  c #975257",
"I  c #AA4848",
"U  c #A8584C",
"Y  c #BD5A4B",
"T  c #B55449",
"R  c #AE4E50",
"E  c #B04E5D",
"W  c #A8595B",
"Q  c #B75559",
"!  c #BC5E5F",
"~  c #BA5C56",
"^  c #B64A40",
"/  c #A9655E",
"(  c #BE6156",
")  c #B6685E",
"_  c #AB5E67",
"`  c #A36260",
"'  c #BA6867",
"]  c #B4726C",
"[  c #C74640",
"{  c #CB4D44",
"}  c #CA4B4A",
"|  c #D24D4C",
" . c #C65445",
".. c #CC554D",
"X. c #C45A4C",
"o. c #CA5A4D",
"O. c #C7564A",
"+. c #D3544D",
"@. c #D2584C",
"#. c #C25453",
"$. c #CC5453",
"%. c #C45B54",
"&. c #CD5B53",
"*. c #CE565B",
"=. c #C45C59",
"-. c #CB5B5B",
";. c #C3575A",
":. c #D25553",
">. c #D35B54",
",. c #D25C5A",
"<. c #D85A58",
"1. c #D44F54",
"2. c #E15858",
"3. c #CB634B",
"4. c #C6604A",
"5. c #D5634D",
"6. c #C76152",
"7. c #CA6254",
"8. c #C4615A",
"9. c #CD645A",
"0. c #CE6C5D",
"q. c #CC6E56",
"w. c #D2615A",
"e. c #D86859",
"r. c #D6775B",
"t. c #E16E59",
"y. c #CB5B60",
"u. c #D15A60",
"i. c #C86864",
"p. c #D36C65",
"a. c #D96B65",
"s. c #D46866",
"d. c #C67869",
"f. c #DC746A",
"g. c #D47A6A",
"h. c #DB7A6D",
"j. c #D87665",
"k. c #DC7471",
"l. c #DC7D75",
"z. c #D87A74",
"x. c #C2777C",
"c. c #EE6E63",
"v. c #E47569",
"b. c #F47969",
"n. c #E27C72",
"m. c #E37371",
"M. c #F67F71",
"N. c #BD817A",
"B. c #D7866B",
"V. c #C88678",
"C. c #D78879",
"Z. c #DE9F7E",
"A. c #CB9976",
"S. c #E58368",
"D. c #FF8A6E",
"F. c #EF8174",
"G. c #E88878",
"H. c #E4857A",
"J. c #F58274",
"K. c #FA8878",
"L. c #E9967C",
"P. c #FF9277",
"I. c #D8A07D",
"U. c #CB8C84",
"Y. c #DB8889",
"T. c #D99B86",
"R. c #D48F92",
"E. c #CE919A",
"W. c #D69E9F",
"Q. c #C9978C",
"!. c #EA8B80",
"~. c #FF8E83",
"^. c #F68583",
"/. c #EC9281",
"(. c #E89889",
"). c #FF9385",
"_. c #FF978A",
"`. c #F79789",
"'. c #EF9B91",
"]. c #E89498",
"[. c #FC9D94",
"{. c #DDAA96",
"}. c #FBA685",
"|. c #FFB28B",
" X c #ECA798",
".X c #FDA494",
"XX c #FFAE94",
"oX c #FEAA9B",
"OX c #F4A096",
"+X c #FFB19F",
"@X c #F1B39E",
"#X c #E6A48C",
"$X c #DF9EA4",
"%X c #EF9CA6",
"&X c #ECA8A5",
"*X c #FBABA2",
"=X c #E8B4A4",
"-X c #FFB1A3",
";X c #F7B6AB",
":X c #FFBCB2",
">X c #E6BDB3",
",X c #DED0B5",
"<X c #FCC2AE",
"1X c #F6C9AA",
"2X c #FEC9BB",
"3X c #E6D7B2",
"4X c #F1DEB9",
"5X c #E7CFAB",
"6X c #F7E3B8",
"7X c #FFCEC4",
"8X c #F5CFC2",
"9X c #FDD7CA",
"0X c #FFD5D2",
"qX c #E1D6C2",
"wX c #FCE8C8",
"eX c #FDF1CA",
"rX c #EEE7D9",
"tX c #EAE9DB",
"yX c #FDEBDD",
"uX c #FAE4D2",
"iX c #FDF4D5",
"pX c #FFF0D8",
"aX c #FBE9E1",
"sX c #FDF4E5",
"dX c #FEFBE5",
"fX c None",
/* pixels */
"fXfXfXfXfXfXfXfXfXfXfXfXfXfXfXfXfXfXfXfXfXfXfXfXfXfXfXfXfXfXfXfXfXfXfXfXfXfXfXfXfXfXfXfXfXfXfXfXfXfX",
"fXfXfXfXfXfXfXfXfXfXfXfXfXfXfXfXfXfXfXfXfXfXfXfXfXfXfXfXfXfXfXfXfXfXfXfXfXfXfXfXfXfXfXfXfXfXfXfXfXfX",
"fXfXfXfXfXfXfXfXfXfXfXfXfXfXfXfXfXfXfXfXfXfXfXfXfXfXfXfXfXfXfXfXfXfXfXfXfXfXfXfXfXfXfXfXfXfXfXfXfXfX",
"fXfXfXfXfXfXfXfXfXfXfXfXfXfXfXfXfXfXfXfXfXfXfXfXfXfXfXfXfXfXfXfXfXfXfXfXfXfXfXfXfXfXfXfXfXfXfXfXfXfX",
"fXfXfXfXfXfXfXfXfXfXfXfXfXfXfXfXfXfXfXfXfXfXfXfXfXfXfXfXfXfXfXfXfXfXfXfXfXfXfXfXfXfXfXfXfXfXfXfXfXfX",
"fXfXfXfXfXfXfXfXfXfXfXfXfXfXfXfXfXfXfXfXfXfXfXfXfXfXfXfXfXfXfXfXfXfXfXfXfXfXfXfXfXfXfXfXfXfXfXfXfXfX",
"fXfXfXfXfXfXfXfXfXfXfXfXfXfXfXfXfXfXfXfXfXfXfXfXfXfXfXfXfXfXfXfXfXfXfXfXfXdXfXfXfXfXfXfXfXfXfXfXfXfX",
"fXfXfXfXfXfXfXfXfXfXfXfXfXfXfXfXfXfXfXfXfXfXfXfXfXfXfXfXfXfXfXfXfXfXfXfXfXdXpXwXfXyXrXfXfXfXfXfXfXfX",
"fXfXfXfXfXfXfXfXfXfXfXfXfXfXfXfXfXfXfXfXfXfXfXfXfXfXfXfXfXfXfXfXfXfXfXfXdXiXiXwXwXiXfXfXtXfXfXfXfXfX",
"fXfXfXfXfXfXfXfXfXfXfXfXfXfXfXfXfXfXfXfXfXfXfXfXfXfXfXfXfXfXfXfXfXfXfXsXiXeXeX6X6XwXfXfXfXtXfXfXfXfX",
"fXfXfXfXfXfXfXfXfXfXfXfXfXfXfXfXfXfXfXfXfXfXfXfXfXfXfXfXfXfXfXfXfXE.0XyXeXeX6X6X4X3XuXfXtXfXfXfXfXfX",
"fXfXfXfXfXfXfXfXfXfXfXfXfXfXfXfXfXfXfXfXfXfXfXfXfXfXfXfXfXfXfXfX' E ] =XuX4X6X6X5X3X,XqXaXfXfXfXfXfX",
"fXfXfXfXfXfXfXfXfXfXfXfXfXfXfXfXfXfXfXfXfXfXfXfXfXfXfXfXfXfXfX$XQ -.~ ~ ' T.1X5X4XfXfXfXfXfXfXfXfXfX",
"fXfXfXfXfXfXfXfXfXfXfXfXfXfXfXfXfXfXfXfXfXfXfXfXfXfXfXfXfXfXfX' -.+.+.D F U U =XfXfXfXfXfXfXfXfXfXfX",
"fXfXfXfXfXfXfXfXfXfXfXfXfXfXfXfXfXfXfXfXfXfXfXfXfXfXfXfXfXfX%XK ..@.c 6 9 m y.U.fXfXfXfXfXfXfXfXfXfX",
"fXfXfXfXfXfXfXfXfXfXfXfXfXfXfXfXfXfXfXfXfXfXfXfXfXfXfXfXfX].J x | H r q w 7 I x.fXfXfXfXfXfXfXfXfXfX",
"fXfXfXfXfXfXfXfXfXfXfXfXfXfXfXfXfXfXY.R k f a a a @ a m x = 1 7 8 e > q 2 ; p _ fXfXfXfXfXfXfXfXfXfX",
"fXfXfXfXfXfXfXfXfXfXfXfXfXfXfXfX' z # * v b v x s 6 o o ; 1 1 w < 3 e q ; - p ] fXfXfXfXfXfXfXfXfXfX",
"fXfXfXfXfXfXfXfXfXfXfXfXfXfXE k a M } #.:.$.$.:.| | b 4 1 w 2 3 2 1 1 X .   L fXfXfXfXfXfXfXfXfXfXfX",
"fXfXfXfXfXfXfXfXfXfXfXfX] t = % C 1.u.$.$.,.,.,.>.<.| v 5 1 2 2 2 1 o %   ! fXfXfXfXfXfXfXfXfXfXfXfX",
"fXfXfXfXfXfXfXfXfXfXfXh - O O i ..<.>.@.:.&.$.O.>.:.2.C 5 5 8 0 1 o 7 @ W fXfXfXfXfXfXfXfXfXfXfXfXfX",
"fXfXfXfXfXfXfXfXfXfXh u i O . 6 { ..+.+.>.<.>.&.>.:.2.C , , 5 ; , C + f fXfXfXfXfXfXfXfXfXfXfXfXfXfX",
"fXfXfXfXfXfXfXfXfXU f.M.K.b.H i u N +.<.@.@.&.&.&...<.C 8 w < ; s 1.= ' fXfXfXfXfXfXfXfXfXfXfXfXfXfX",
"fXfXfXfXfXfXfXfXg.n.J.K.P.P.P.D.5.n i N +.+.&.&.&.:.| c : 2 > X V $.@ Y.fXfXfXfXfXfXfXfXfXfXfXfXfXfX",
"fXfXfXfXfXfXfXfXB.4.o.7...w.5.S.}.K.{ 6 x H >.o.>.:.c q 2 > > . ^ #.p &XfXfXfXfXfXfXfXfXfXfXfXfXfXfX",
"fXfXfXfXfXfXfXC.r.5.>.>.*.>.o.4.q..X[.b.V x N ..| C q > 3 q X & &.T d fXfXfXfXfXfXfXfXfXfXfXfXfXfXfX",
"fXfXfXfXfXfXfXB.r.o.$.,.*.$.&.O.7.j..XoX_. .9 v Z 2 2 3 8 5 o * a.I z fXfXfXfXfXfXfXfXfXfXfXfXfXfXfX",
"fXfXfXfXfXfXfXZ.r. .&.-.*.*.,.>.%.Y /.-XoX_.[ X < 2 3 3 : 4 . F j.U L fXfXfXfXfXfXfXfXfXfXfXfXfXfXfX",
"fXfXfXfXfXfXfX#Xj.O.w.-.,.u.:.$.7.=.l.`.h.P.`.N 4 e 2 > 8 X * w.m.A / fXfXfXfXfXfXfXfXfXfXfXfXfXfXfX",
"fXfXfXfXfXfXfXC./.7.=.=.-.$.#.0.p.C.[.H.( Y K.~.V : 5 5 8 - D a.m.g ] fXfXfXfXfXfXfXfXfXfXfXfXfXfXfX",
"fXfXfXfXfXfXfXV.OXH.=.-.y.-.g.(.*X;X*Xl.%.0.o.K.c.i 4 : o x a.l.s.d fXfXfXfXfXfXfXfXfXfXfXfXfXfXfXfX",
"fXfXfXfXfXfXfXfX/.[.h.8.;.z.oX:X2X>X*Xz.%.O.>.e.).| O o y >.h.k.;.l fXfXfXfXfXfXfXfXfXfXfXfXfXfXfXfX",
"fXfXfXfXfXfXfXfX' .XoX(.OX*X;X9XyX9X;Xg.%...>.o.J.M.i u 7.j.j.l.z ` fXfXfXfXfXfXfXfXfXfXfXfXfXfXfXfX",
"fXfXfXfXfXfXfXfX) H.-X+XoX-X:X7XsX0X;Xd.7.>...:.>.~.n F S.g.h.i.  W.fXfXfXfXfXfXfXfXfXfXfXfXfXfXfXfX",
"fXfXfXfXfXfXfXfXfXU +XL.i.g.C.:X0X7X:X(.=.-.-.y.*.^.&.j p.g.z.Q ` fXfXfXfXfXfXfXfXfXfXfXfXfXfXfXfXfX",
"fXfXfXfXfXfXfXfXfX/ V.G.X.6.( i.C.(.'.*XC.=.y.y.u.a.M.t Y k.k.J $XfXfXfXfXfXfXfXfXfXfXfXfXfXfXfXfXfX",
"fXfXfXfXfXfXfXfXfXfXA L.q.&.7.%.&.7.q.n.[.p.#.,.<.<.J.n S j.s.I fXfXfXfXfXfXfXfXfXfXfXfXfXfXfXfXfXfX",
"fXfXfXfXfXfXfXfXfXfXT.) G.Y 7.X.>...O.O.f.!.,.$.>.@.c.G y s.R R.fXfXfXfXfXfXfXfXfXfXfXfXfXfXfXfXfXfX",
"fXfXfXfXfXfXfXfXfXfXfXV.] /.p.7.$.&.>.,.#.F.m.%.o. .t.t.% ~ ` fXfXfXfXfXfXfXfXfXfXfXfXfXfXfXfXfXfXfX",
"fXfXfXfXfXfXfXfXfXfXfXfXQ.V.'.l.8.7.$.$.s.#.^.n.6.4.e.t.% z fXfXfXfXfXfXfXfXfXfXfXfXfXfXfXfXfXfXfXfX",
"fXfXfXfXfXfXfXfXfXfXfXfXfX>X$X X/.j.&.$.*.-.p.[./.r.j.M.f I fXfXfXfXfXfXfXfXfXfXfXfXfXfXfXfXfXfXfXfX",
"fXfXfXfXfXfXfXfXfXfXfXfXfXfXfX2X=X(.H.a.9.%.( g.XXXXXXB.h fXfXfXfXfXfXfXfXfXfXfXfXfXfXfXfXfXfXfXfXfX",
"fXfXfXfXfXfXfXfXfXfXfXfXfXfXfXfXfX8X=X(.H.g.q.r.}.|.}.A.A.fXfXfXfXfXfXfXfXfXfXfXfXfXfXfXfXfXfXfXfXfX",
"fXfXfXfXfXfXfXfXfXfXfXfXfXfXfXfXfXfXfX9X<X@X#XT.I.I.A.{.fXfXfXfXfXfXfXfXfXfXfXfXfXfXfXfXfXfXfXfXfXfX",
"fXfXfXfXfXfXfXfXfXfXfXfXfXfXfXfXfXfXfXfXfXfXaXaXyXuXfXfXfXfXfXfXfXfXfXfXfXfXfXfXfXfXfXfXfXfXfXfXfXfX",
"fXfXfXfXfXfXfXfXfXfXfXfXfXfXfXfXfXfXfXfXfXfXfXfXfXfXfXfXfXfXfXfXfXfXfXfXfXfXfXfXfXfXfXfXfXfXfXfXfXfX",
"fXfXfXfXfXfXfXfXfXfXfXfXfXfXfXfXfXfXfXfXfXfXfXfXfXfXfXfXfXfXfXfXfXfXfXfXfXfXfXfXfXfXfXfXfXfXfXfXfXfX",
"fXfXfXfXfXfXfXfXfXfXfXfXfXfXfXfXfXfXfXfXfXfXfXfXfXfXfXfXfXfXfXfXfXfXfXfXfXfXfXfXfXfXfXfXfXfXfXfXfXfX",
"fXfXfXfXfXfXfXfXfXfXfXfXfXfXfXfXfXfXfXfXfXfXfXfXfXfXfXfXfXfXfXfXfXfXfXfXfXfXfXfXfXfXfXfXfXfXfXfXfXfX",
"fXfXfXfXfXfXfXfXfXfXfXfXfXfXfXfXfXfXfXfXfXfXfXfXfXfXfXfXfXfXfXfXfXfXfXfXfXfXfXfXfXfXfXfXfXfXfXfXfXfX"
};
