/* XPM */
static char *result[] = {
/* columns rows colors chars-per-pixel */
"50 50 158 2 ",
"   c #1E160A",
".  c #221706",
"X  c #241906",
"o  c #281D07",
"O  c #22170A",
"+  c #251A0B",
"@  c #2A1E0D",
"#  c #251C12",
"$  c #2A1F12",
"%  c #2D210E",
"&  c #31220D",
"*  c #2D2212",
"=  c #2F2519",
"-  c #322513",
";  c #352915",
":  c #3A2C16",
">  c #322719",
",  c #362A1A",
"<  c #3B2D1A",
"1  c #3E3117",
"2  c #3E311C",
"3  c #362E22",
"4  c #3B2F21",
"5  c #373020",
"6  c #3D3222",
"7  c #3F392A",
"8  c #42341D",
"9  c #45391E",
"0  c #443622",
"q  c #463923",
"w  c #493A24",
"e  c #423629",
"r  c #443B2A",
"t  c #4A3C29",
"y  c #473D31",
"u  c #4A412F",
"i  c #4C4434",
"p  c #4F4835",
"a  c #4D453A",
"s  c #4F493D",
"d  c #524636",
"f  c #534937",
"g  c #524738",
"h  c #544B3C",
"j  c #594D3E",
"k  c #59513F",
"l  c #4F4C43",
"z  c #564E41",
"x  c #594E41",
"c  c #565145",
"v  c #5C5343",
"b  c #5F5946",
"n  c #5D5549",
"m  c #5E594D",
"M  c #625647",
"N  c #605946",
"B  c #615648",
"V  c #635B4B",
"C  c #645D53",
"Z  c #6B5F51",
"A  c #69614F",
"S  c #666153",
"D  c #6C6455",
"F  c #6D6855",
"G  c #6D6659",
"H  c #6E695A",
"J  c #726656",
"K  c #716957",
"L  c #726659",
"P  c #736C5C",
"I  c #79705F",
"U  c #756E61",
"Y  c #786F60",
"T  c #767163",
"R  c #7A7464",
"E  c #7E7966",
"W  c #7C766A",
"Q  c #7E796C",
"!  c #7F7C73",
"~  c #817666",
"^  c #807967",
"/  c #837C6C",
"(  c #847E72",
")  c #887E72",
"_  c #87826F",
"`  c #88816F",
"'  c #868173",
"]  c #8A8373",
"[  c #8D8875",
"{  c #868279",
"}  c #8B8579",
"|  c #8E897C",
" . c #908776",
".. c #908977",
"X. c #908778",
"o. c #928B7C",
"O. c #97907E",
"+. c #8F8B81",
"@. c #928E83",
"#. c #959184",
"$. c #999283",
"%. c #969289",
"&. c #9A948A",
"*. c #9F998C",
"=. c #999691",
"-. c #9D9A92",
";. c #A19B8E",
":. c #A29D95",
">. c #A29F98",
",. c #A4A197",
"<. c #A6A29B",
"1. c #A8A59E",
"2. c #ADA89C",
"3. c #B3AD9E",
"4. c #A7A6A1",
"5. c #AAA6A1",
"6. c #AEAAA2",
"7. c #B2AEA4",
"8. c #B4B1A6",
"9. c #B8B2A3",
"0. c #B5B2A9",
"q. c #B9B5AC",
"w. c #BBB8AD",
"e. c #B8B7B3",
"r. c #BEBBB2",
"t. c #C0BBAF",
"y. c #C4BFBC",
"u. c #C4C1BA",
"i. c #CAC5BB",
"p. c #CCC9BC",
"a. c #D0C8BB",
"s. c #CAC6C1",
"d. c #CECBC5",
"f. c #D1CDC5",
"g. c #D4D0C6",
"h. c #D9D3C4",
"j. c #D5D3CC",
"k. c #D9D6CD",
"l. c #DDDACF",
"z. c #D7D6D1",
"x. c #D9D5D2",
"c. c #DDDBD5",
"v. c #E0DDCE",
"b. c #E0DDD7",
"n. c #E2DFDA",
"m. c #E3E1D7",
"M. c #E5E3DC",
"N. c #E8E5DE",
"B. c #E6E5E0",
"V. c #E9E6E3",
"C. c #ECEAE3",
"Z. c #F4EDE4",
"A. c #F0EDEB",
"S. c #F4F3ED",
"D. c #F8F7F2",
"F. c #FDFAF4",
"G. c #FEFBF8",
"H. c None",
/* pixels */
"H.H.H.H.H.H.H.H.H.H.H.H.H.H.H.C.v.p.3.2.y.Z.a.3.;.O.O.O.9.H.H.H.H.H.H.H.H.H.H.H.H.H.H.H.H.H.H.H.H.H.",
"H.H.H.H.H.H.H.H.H.H.H.H.H.H.c.8.#.o.| [ } :.O.] o.~ O.o.R ;.c.h.q.s.H.H.H.H.H.H.H.H.H.H.H.H.H.H.H.H.",
"H.H.H.H.H.H.H.H.H.H.H.H.H.f.%.! ' / ' E C / ( ( /  .` ~ W G R ( ( ( +.<.H.H.H.H.H.H.H.H.H.H.H.H.H.H.",
"H.H.H.H.H.H.H.H.H.H.H.6.>.| Q T E Q R m s P / / / ` ^ I H z U } ( ( } ( ( %.H.H.H.H.H.H.H.H.H.H.H.H.",
"H.H.H.H.H.H.H.H.H.H.&.+.o.{ ' m V F C u 3 a z z m V K F V i H W / / / / T T H.H.H.H.H.H.H.H.H.H.H.H.",
"H.H.H.H.H.H.H.H.H.,.Q { ' ' Q h 5 7 3 * # # # * * 2 - = 7 3 y C P R U P S H q.H.H.H.H.H.H.H.H.H.H.H.",
"H.H.H.H.H.H.H.H.d.#.' Q T Q F u % +     # # # * O + + O O   # 3 e V F S m T @.#.H.H.H.H.H.H.H.H.H.H.",
"H.H.H.H.H.<.{ | } D c A F k 5 %     * *   # =   % + + # * #   # X , e < f E ' { ( H.H.H.H.H.H.H.H.H.",
"H.H.H.H.u.! ! _ Q b 5 = * * X % # $ - $ $ $ $ $ * * = % * + *   O X + % r S Q / ( ! H.H.H.H.H.H.H.H.",
"H.H.H.j.%.} ' P V i % % X %   % @ - > $ > $ $ * , , , - = + * # @ % @ O % 7 m P ! ! @.H.H.H.H.H.H.H.",
"H.H.H.,.! ! R b 7 *   X % % + + * ; > - > $ * - < < < , > @ = # + = * % . O < s U U W H.H.H.H.H.H.H.",
"H.H.H.0.m G F p * % % * * * = % - < , > - - & & < 1 2 2 - @ * # + , ; = * O   * y C +.=.6.H.H.H.H.H.",
"H.H.C.0.g 7 2 5 % % * ; ; ; ; * - , < > > - - - 1 8 2 8 , - - = % 2 , ; , % X . , U ] / G ! H.H.H.H.",
"D.M.-.( ( C r - X % ; ; ; = , = - < 6 4 : ; - - 8 9 8 9 1 - - * % 2 7 ; : , % o $ 7 ^ } ( T -.H.H.H.",
"Z.f.{ @./ / V 0 % & 1 < 2 , , = ; 2 0 < < : ; : q q 8 9 1 , , - % ; u 2 2 : & % . * Z ] | W S H.H.H.",
"F.i.) ( ] ~ J 0   ; 2 2 7 < , = ; 2 0 < 8 : - & 9 w 8 q : 1 , - % ; u 2 2 1 ; % % X x ] ' T n w.H.H.",
"H.g.} / / P B 0 @ , 8 8 8 8 , - - 8 w 8 < : : & w : 8 w : : : & O 0 e 8 8 8 - - & O y ) W R z 1.H.H.",
"H.m._ E / P L 6 + , 0 9 8 8 , $ - 8 0 8 8 8 : & w 0 0 w 8 : : : @ 8 e 8 8 8 : - $ & x ) W G i *.H.H.",
"S.j.Q K K A M * + < 9 9 0 0 , & * 8 0 8 8 8 : & 8 w w w 8 : < : @ 4 0 < 8 8 > : $ O y ~ P v a r.H.H.",
"H.7.R A k h e @ @ < w 9 8 8 , & & 8 8 8 8 8 & & 8 w w 8 : : : : @ 4 0 8 8 8 : > > @ e L T m V s.H.H.",
"n.@.$.} I A d > @ < 0 9 8 8 - & - 8 0 8 0 8 & & : w w 8 : : < : * 8 0 0 0 9 < < @ & x ) ) ) Z ) H.H.",
"s.! ] _ R A N , $ 8 0 8 8 8 - @ - 8 w 0 8 8 & & 8 w w : < < : < * 4 0 0 q 8 < < 8 $ M ) ) / U W H.H.",
"d.{ / } / I v * * 6 q 8 8 8 > @ - 8 0 0 8 : & & 8 w w 8 8 : : < $ 8 w 8 0 9 < 1 $ @ L &.) ) Y ) H.H.",
"H.-.' o.] ^ g % * 8 w 8 8 8 > @ & 0 w 0 8 & & & 8 w w 8 8 8 : : $ 8 w w 0 9 < 8 > > L ) ) ) Y ) H.H.",
"H.w.D b H A = % - 0 w 8 8 8 , $ : 8 w 8 8 : & & w w 0 0 0 : 8 : $ < t 0 8 8 : < < % J } ' I T T N.H.",
"H.0.m f 7 ; + % - 4 w 8 8 8 , $ : 8 w 8 : : & & 0 w 0 0 0 8 : : - < w w 8 8 8 : , * Z / / P S c z.H.",
"H.i.R v p p r + - 0 w 8 8 8 - & : 0 w 8 8 : & & 8 w 0 w w 0 0 : - < w 0 8 8 8 : , , V _ / F i 7 e.H.",
"H.H.:.F D F v 6 - 8 8 8 8 8 - & : 0 w 0 8 : & & 8 w 0 0 w w : : - 0 t 0 8 8 8 - , > p T F h s G j.H.",
"H.m.#.E R F x e < 0 0 8 < : - & : 0 w 0 8 : & & 8 0 0 0 0 8 : : & 2 t w 9 9 2 ; : * < V K V b T n.H.",
"H.7.Q _ / F M < 4 0 8 < : : $ & 8 0 w w w : & & 8 w 8 0 8 : : : @ < w 0 9 u 8 1 1 > > C ' / F A =.H.",
"H.7.] ] R Z v e 4 0 0 < : : & & : 8 w 8 0 : & & 0 w 0 8 : : : & @ : 9 9 8 9 8 2 , * > V _ / Q W C B.",
"H.8.( / ` P h < 8 w w 8 : : & & 0 8 0 0 w : & & 8 w w w : : : : @ : 9 8 8 8 8 8 < * @ M ] ' ( T m 0.",
"H.6.' Q / K i , 2 w 2 2 2 , % * 8 8 8 8 0 8 @ & 0 e 0 < 8 < ; & # < 0 < 1 2 q 8 2 = * x ( ] / R n >.",
"S.w.Q ! W J f < 2 w q 6 5 2 * * 8 8 8 8 0 : $ , 0 w 0 8 8 : < $ @ < w < 1 1 q 6 , * $ z ( o.' R s <.",
"S.c.+.{ T F i - q w 8 q 2 , % = 8 8 9 9 e , $ : 0 0 8 1 0 : , @ @ 6 w 0 8 : w 8 2 = X y K R G n +.B.",
"H.C.+.T D M 8 ; q u 8 q 2 , % ; 8 8 w 9 8 - @ : 2 2 1 < 8 , 8 & @ < w 0 9 : 9 8 2 * X g ' o.] R +.z.",
"F.t.Q H T D e < w w 0 0 2 , % - 8 9 9 8 0 & @ , 2 < : 8 8 : 8 & @ < e 8 9 : 8 8 8 - O j ]  ./ I c =.",
"v.| ( / / I f : 8 w 8 0 2 , @ , 8 9 9 9 w & @ 8 < 1 8 8 8 : 8 - @ < 0 8 8 8 8 8 ; @ + j ] ] R K l 4.",
"p.} { E I K f ; 8 w 8 0 < ; % ; 8 9 w 0 w 8 & , 8 < 8 8 8 : : : @ < 0 8 9 8 8 8 < - @ j ` ] / P m e.",
"g.#.' E ~ J 0 ; w w 0 w 8 : % , 8 0 w 0 0 8 & : , 8 8 9 w 8 8 & * < 8 2 9 8 8 8 ; - o d ^  .] ^ S r.",
"Z.;.Y A v t - - 8 w w 0 < - - ; 9 9 9 t 8 < - - , < 8 8 0 8 8 ; * < 2 2 9 2 2 1 ; ; * 0 P I R P U H.",
"h.$.R F x 0 @ ; < 0 w 0 ; - - , 2 1 8 t 0 < - $ > < 8 0 w 8 , - * , 2 q u 2 2 1 < > O 6 D J N k v *.",
"9.o.) ^ L h > , 0 0 0 < < - ; , w 2 2 q 4 < > - > 8 ; 8 0 0 , ; X * , 2 1 1 ; 1 ; , $ r P [ ] ` G h ",
"&./ / ) ^ V , , 0 w 0 4 - * - < 6 < 2 q < < > - 8 > , 4 0 0 > * $ * , 2 2 2 & ; - - * 7 K ] _ / P c ",
"$.' ' ] / M , < 6 e r 2 - % * 5 q , 2 r < > > $ @ $ $ , 0 2 * + O . = , 2 < % * ; +   3 F / _ E H G ",
"#.} | ' U g - < w 6 - % * * = 2 8 : , 2 $ > , 4 8 > - - , , = $ = = > * ; - % * * = 5 > V R ' R m ! ",
"#.Q Q R D g , e D M f d k b b b N j i d a z n Z L J B M k k z h n B f u u r u 7 u n G c c D F S S w.",
"8.{ T P U P B G P R R / ' ' ' ' / R J G C C C G Z D D Z G G L L D U G F D S F G D D G S c m H | 7.m.",
"H.H.c.b.m.M.c.d.d.s.j.N.V.n.A.C.m.s.8.<.<.4.4.>.>.>.:.7.:.@.@.&.<.<.-.5.y.H.H.f.y.1.>.q.d.x.H.n.B.B.",
"H.H.H.H.H.H.H.H.H.H.H.H.H.V.A.V.c.d.z.S.G.S.S.G.G.A.V.F.C.j.f.k.N.H.H.H.H.H.H.H.H.H.H.H.H.H.H.H.H.H."
};
