/* XPM */
static char *result[] = {
/* columns rows colors chars-per-pixel */
"50 50 210 2 ",
"   c #2A1E14",
".  c #2E2116",
"X  c #33251A",
"o  c #3A2A1D",
"O  c #35281D",
"+  c #3C2E22",
"@  c #3E3026",
"#  c #412B19",
"$  c #433326",
"%  c #45382E",
"&  c #45352A",
"*  c #573C26",
"=  c #564639",
"-  c #4F4338",
";  c #7E5126",
":  c #764F2A",
">  c #494946",
",  c #4E4D4B",
"<  c #484644",
"1  c #5A4D42",
"2  c #53514E",
"3  c #5F564E",
"4  c #555452",
"5  c #595755",
"6  c #5B5957",
"7  c #5E5D5B",
"8  c #655649",
"9  c #6B5B4C",
"0  c #625448",
"q  c #6D5E52",
"w  c #615C56",
"e  c #705F51",
"r  c #745C48",
"t  c #6F6053",
"y  c #6B625B",
"u  c #64605D",
"i  c #736355",
"p  c #746659",
"a  c #7B6A5D",
"s  c #77695D",
"d  c #7D634B",
"f  c #656463",
"g  c #6C6966",
"h  c #6D6C6A",
"j  c #696765",
"k  c #7D6E60",
"l  c #746E69",
"z  c #756B63",
"x  c #7E7165",
"c  c #7C726A",
"v  c #77716C",
"b  c #757473",
"n  c #7C7B78",
"m  c #7A7775",
"M  c #96591F",
"N  c #844D1A",
"B  c #8C5521",
"V  c #855426",
"C  c #9C5C21",
"Z  c #965C25",
"A  c #A25F20",
"S  c #AC6522",
"D  c #AA6727",
"F  c #B66C26",
"G  c #BF7126",
"H  c #BF7D3C",
"J  c #A56E3A",
"K  c #836E5E",
"L  c #8B6F55",
"P  c #A2754A",
"I  c #816F61",
"U  c #837265",
"Y  c #84766A",
"T  c #887669",
"R  c #8A7A6D",
"E  c #897769",
"W  c #917D6D",
"Q  c #837B74",
"!  c #8D7E72",
"~  c #817F7E",
"^  c #917F71",
"/  c #BB814A",
"(  c #8E8175",
")  c #84817E",
"_  c #8D847B",
"`  c #938275",
"'  c #9A8576",
"]  c #92857A",
"[  c #9B8A7D",
"{  c #97887C",
"}  c #A28D7D",
"|  c #A48B72",
" . c #C7915C",
".. c #D1A172",
"X. c #868583",
"o. c #898582",
"O. c #8A8885",
"+. c #8B8B89",
"@. c #948A82",
"#. c #9B8D82",
"$. c #928A84",
"%. c #92918E",
"&. c #9E9388",
"*. c #9E9085",
"=. c #959493",
"-. c #9C9B9A",
";. c #999694",
":. c #A38F81",
">. c #A39284",
",. c #AC9685",
"<. c #A3958A",
"1. c #A9978A",
"2. c #A5998E",
"3. c #AC9A8C",
"4. c #B39C8C",
"5. c #A59C92",
"6. c #AA9D92",
"7. c #A39F9B",
"8. c #B29F92",
"9. c #B9A08F",
"0. c #B7A08F",
"q. c #A3A09D",
"w. c #ACA39B",
"e. c #ADA197",
"r. c #B4A294",
"t. c #BBA393",
"y. c #B2A59B",
"u. c #BDAA9B",
"i. c #B5A99F",
"p. c #A4A4A3",
"a. c #ACACAB",
"s. c #B4ABA3",
"d. c #BAACA1",
"f. c #BDB1A6",
"g. c #BDB3AB",
"h. c #B7B1A8",
"j. c #AFB0B0",
"k. c #B3B3B3",
"l. c #BDB7B1",
"z. c #BCBCBC",
"x. c #B7B8B8",
"c. c #C3AB9B",
"v. c #C3A997",
"b. c #CAB09F",
"n. c #C0AEA0",
"m. c #C3B2A6",
"M. c #CCB3A3",
"N. c #C2B6AC",
"B. c #CAB7AA",
"V. c #C7B8AD",
"C. c #CAB9AC",
"Z. c #D3B8A7",
"A. c #D5BBA9",
"S. c #C4BCB4",
"D. c #CBBDB3",
"F. c #C5BFB9",
"G. c #D5BEB0",
"H. c #DDC1AF",
"J. c #CDC0B7",
"K. c #CBC2BB",
"L. c #DCC2B1",
"P. c #D3C5BB",
"I. c #DBC6B9",
"U. c #DECABB",
"Y. c #D5C2B4",
"T. c #E2C3AF",
"R. c #E3C6B4",
"E. c #E6C9B6",
"W. c #E6CAB9",
"Q. c #E9CCBB",
"!. c #EAD0BF",
"~. c #C3C3C3",
"^. c #CCCCCC",
"/. c #CCC7C1",
"(. c #D2CAC3",
"). c #DBCDC4",
"_. c #D5CFCA",
"`. c #DACFC8",
"'. c #DBD3CD",
"]. c #D5D2CF",
"[. c #D4D3D3",
"{. c #DED8D3",
"}. c #DBDBDB",
"|. c #DAD5D0",
" X c #EBD3C3",
".X c #E3D4CC",
"XX c #ECD7C9",
"oX c #EEDACD",
"OX c #E7D8CF",
"+X c #F1DCCE",
"@X c #E3DBD4",
"#X c #EDDDD3",
"$X c #E6DFD9",
"%X c #E2D7D0",
"&X c #F1DED2",
"*X c #E4E1DD",
"=X c #ECE2DC",
"-X c #F1E1D6",
";X c #F3E4DB",
":X c #F6E8DF",
">X c #E3E2E1",
",X c #EDE6E1",
"<X c #EEEAE6",
"1X c #F5EBE3",
"2X c #F5EEE9",
"3X c #F6EBE4",
"4X c #F6F1ED",
"5X c #F8F2ED",
"6X c #F9F5F1",
"7X c None",
/* pixels */
"7X7X7X7X7X7X7X7X7X7X7X7X7X7X7X7X7X7X7X7X7X7X7X7X7X7X7X7X7X7X7X7X7X7X7X7X7X7X7X7X7X7X7X7X7X7X7X7X7X7X",
"7X7X7X7X7X7X7X7X7X7X7X7X7X7X7X7X7X7X7X7X7X7X7X7X7X7X7X7X7X7X7X7X7X7X7X7X7X7X7X7X7X7X7X7X7X7X7X7X7X7X",
"7X7X7X7X7X7X7X7X7X7X7X7X7X7X7X7X7X7X7X7X7X7X7X7X7X7X7Xt x ( #.<.>.#.^ T k q 7X7X7X7X7X7X7X7X7X7X7X7X",
"7X7X7X7X7X7X7X7X7X7X7X7X7X7X7X7X7X7X7X7X7X7X7X7Xq ! y.(.$X,X1X1X1X1X1X$X).m.} I 9 7X7X7X7X7X7X7X7X7X",
"7X7X7X7X7X7X7X7X7X7X7X7X7X7X7X7X7X7X7X7X7X7X8 R S.<X5X5X4X3X1X1X:X;X;X;X&X+XQ.H.t.U 0 7X7X7X7X7X7X7X",
"7X7X7X7X7X7X7X7X7X7X7X7X7X7X7X7X7X7X7X7X7X9 2.>X6X4X4X=X1X1X1X1X1X1X;X;X;X+XE.Q.Q.A.' 9 7X7X7X7X7X7X",
"7X7X7X7X7X7X7X7X7X7X7X7X7X7X7X7X7X7X7X7X9 7.4X6X4X4X]._.1X1X:X:X1X&X3X&X&X+XE.E.Q.Q.R.| 8 7X7X7X7X7X",
"7X7X7X7X7X7X7X7X7X7X7X7X7X7X7X7X7X7X7X7X( <X6X4X4X,X(.1X1X1X1X=X;X;X;X;X&X XQ.E.E.Q.E.G.E 7X7X7X7X7X",
"7X7X7X7X7X7X7X7X7X7X7X7X7X7X7X7X7X7X7Xq s.5X5X4X4X<X1X3X3X:X:X:X&X1X&X&XoXQ.E.E.E.E.Q.Q.c.i 7X7X7X7X",
"7X7X7X> > < 7X7X7X7X7X7X7X7X7X7X7X7X7X! h.>X6X4X4X4X2X1X1X:X:X:X1X3X1XoX XQ.Q.E.Q.Q.E.E.R.W 7X7X7X7X",
"7X7X7X> h n 4 > > 7X7X7X7X7X7X7X7X7X7Xs.l.h.@X4X4X2X1X1X1X:X,X=X).n.6.4.8.t.4.4.T.E.Q.E.Q.4.9 7X7X7X",
"7X7X> , -.}.z.+.7 > 7X7X7X7X7X7X7X7Xq q.1 + 1 _ ).2X1X1X1X-Xf.x % # X o r t.Z.H.T.Q.E.E.Q.A.p 7X7X7X",
"7X7X> j a.^.>X}.x.5 7X7X7X7X7X7X7X7Xa @..       z :X3X@X5.t $ .         $ ,.Q.Q.E.E.Q.E.E.R.T 7X7X7X",
"7X7X, %.k.z.>X}.^.h 7X7X7X7X7X7X7X7XU o..       - @X3X[ o .       .     . K E.Q.Q.E.Q.E.Q.!.` 7X7X7X",
"7X7X, +.k.k.^.>X[.;., 7X7X7X7X7X7X7XU o..       % ).=Xq         .         = Z.Q.E.E.E.Q.!.XX[ 7X7X7X",
"7X7X7Xf a.j.z.>X}.[.h 7X7X7X7X7X7X7XU _ .       % _.=Xp .     .     .     $ 4.Q.Q.E.Q.Q.XXXX[ 7X7X7X",
"7X7X7X, X.k.k.[.}.}.-.> 7X7X7X7X7X7Xk ]         - .X1X] X                 + ,.Q.E.Q.Q.W.XXoX{ 7X7X7X",
"7X7X7X7X7 a.j.z.>X}.z.6 7X7X7X7X7X7Xp p.1 O X   i @X3XN.&             X $ p Z.W.E.Q. XXX#XoXU 7X7X7X",
"7X7X7X7X> X.k.k.|.}.[.X.7X7X7X7X7X7X9 S.@Xy.[ #.&.] &X#XR o . . X $ = T u.!.W.W.W.!.XXoX;XP.i 7X7X7X",
"7X7X7X7X7X7 p.k.z.>X}.x.4 7X7X7X7X7X7Xe.6X2X2X=Xy + N.1X.X#.I E >.m.W.XX+X XW.E.H. X+X-X;X<.7X7X7X7X",
"7X7X7X7X7X> ~ k.x.[.}.[.b 7X7X7X7X7X7X] 2X2X3Xs.X   q #X&X;X&X&X&X&X&X+X XR.Q.Q.!.XXoX;XD.p 7X7X7X7X",
"7X7X7X7X7X7X6 p.k.z.>X}.p.> 7X7X7X7X7Xk *X3X1X]     @ D.;X&X=X&X+X+XXX!.E.E.Q.Q.Q.-X@XN.Y 7X7X7X7X7X",
"7X7X7X7X7X7X> n k.k.[.}.^.j 7X7X7X7X7Xi |.2X1XP.0 + a OX-X&XoXXX+XXXQ.Q.T.T. X X X-X=XR 7X7X7X7X7X7X",
"7X7X7X7X7X7X7X5 -.k.~.>X[.=.7X7X7X7X7X9 ] w.,X1X.XN..X;XoX Xm.G.!.E.E.E.Q.Q.XX+X-X1XP.p 7X7X7X7X7X7X",
"7X7X7X7X7X7X7X7Xb k.x.[.}.z.7 7X7X7X7X7X7X_ ,X$X;X1X&X&XXXE.} v.E.E.E.Q.E. X&X;X:X1X#.7X7X7X7X7X7X7X",
"7X7X7X7X7X7X7X7X4 -.k.~.}.[.n 7X7X7X7X7X7X] @X).1X&X).oX Xv.! 3.,.c.H.Q.R.W.D.s.q.o.w 7X7X7X7X7X7X7X",
"7X7X7X7X7X7X7X7X7Xb k.k.}.}.a.4 7X7X7X7X7Xp 5.s.OX`.m. XZ.I 5.4X&.9 R 1.y.m b ;.-.5 7X7X7X7X7X7X7X7X",
"7X7X7X7X7X7X7X7X7X4 ;.k.~.}.^.b 7X7XB B 7X7X9 p U R I ^ I 7X#.oX8.7X7X7X, g q.j.O.4 7X7X7X7X7X7X7X7X",
"7X7X7X7X7X7X7X7X7X7Xl k.x.|.C.P B S S C 7X7X7X7X7X7Xk e p c Y M.4.p x p 2 %.7.=.=.a.=.j 7X7X7X7X7X7X",
"7X7X7X7X7X7X7X7X7X7X2 @.| P J P H G G M ; 7X7X7Xk l.F.d..X@X'.8.6.(.@XK.u ~ =.;.-.;.m 7X7X7X7X7X7X7X",
"7X7X7X7X7X7X7X7X7X7XV Z S / .. .F M V L x 7X7XU K.4XS.B.W.E.W.u.r.W.W.W.:.4 ) X.X.X.-.+.7X7X7X7X7X7X",
"7X7X7X7X7X7X7X7XB A F G F F M ; : K s.Y g 2 i c.XXQ.:.Y ! T ! I a ! R R R 0 5 j n ;.%.n , 7X7X7X7X7X",
"7X7X7X7X7X7X7X7X7XD F A M ; d [ e.e.{.e.%.~ 0 t.L.} k (.@X|.@XN.y.$X'.@X'.x > h l v Q y 7X7X7X7X7X7X",
"7X7X7X7X7X7X7X7X7XB Z 7X7X` P.XX).y.t.L.{ ) l c ^ 7X7Xr.I.Q.I.1.{ Y.W.W.u.a 7X> 8 y.P.( 7X7X7X7X7X7X",
"7X7X7X7X7X7X7X7X7X7X7X7X7XU } 8.g.F.5.4.k z g 7X7X7X7XY T K k Y U U U U Y i 7X7Xc '.*X&.7X7X7X7X7X7X",
"7X7X7X7X7X7X7X7X7X7X7X7X7X7X[ W.W.D.2.t y f 7X7X7X7X7X(._.e.K.(.g.}.s.f.|.Y 7X7XR {.3Xe.7X7X7X7X7X7X",
"7X7X7X7X7X7X7X7X7X7X7X7X7X7XU W [ S.*Xs.v u 7X7X7X7X7Xr.oXoX+Xr.{ .X+X+XB.i 7X7XT L. X} 7X7X7X7X7X7X",
"7X7X7X7X7X7X7X7X7X7X7X7X7X7X7XU Y.W.r.Y ( 7 7X7X7X7X7X7X,.Z.t.! r } M.v.U 7X7X1 I L.R.R 7X7X7X7X7X7X",
"7X7X7X7X7X7X7X7X7X7X7X7X7X7X7XI ' r * % h w 7X7X7X7X7X7X9 ! s.s.p g.y.Y 7X` Y 2.{ 1.3.R 7X7X7X7X7X7X",
"7X7X7X7X7X7X7X7X7X7X7X7X7X7X7X7X7Xo # 7X7X7X7X7X7X7X7X7XR ).;X2.9 J.1Xe.a v.2.4XS.s./.S.5.7X7X7X7X7X",
"7X7X7X7X7X7X7X7X7X7X7X7X7X7X7X7X7X7X7X7X7X7X7X7X7X7X7X7X^ G.M.7X7X,.W.0.9 K 4.XX3.C.Y.V.r.7X7X7X7X7X",
"7X7X7X7X7X7X7X7X7X7X7X7X7X7X7X7X7X7X7X7X7X7X7X7X7X7X7Xj o.$.Q w 7Xx m.>.q 8 4.b.` L.t.M.' 7X7X7X7X7X",
"7X7X7X7X7X7X7X7X7X7X7X7X7X7X7X7X7X7X7X7X7X7X7X7X7X7X7Xg O.Q v w 7X9 e.f.s.t a a a >.R } 7X7X7X7X7X7X",
"7X7X7X7X7X7X7X7X7X7X7X7X7X7X7X7X7X7X7X7X7X7X7X7X7X7X7X7Xf.K.@.7X7X7X#.=X$XR 7X7X7X7X7X7X7X7X7X7X7X7X",
"7X7X7X7X7X7X7X7X7X7X7X7X7X7X7X7X7X7X7X7X7X7X7X7X7X7X7X7XA.!.>.7X7X7XT I. X:.7X7X7X7X7X7X7X7X7X7X7X7X",
"7X7X7X7X7X7X7X7X7X7X7X7X7X7X7X7X7X7X7X7X7X7X7X7X7X7X7Xs r.B.^ 7X7X7X7X4.E.r.7X7X7X7X7X7X7X7X7X7X7X7X",
"7X7X7X7X7X7X7X7X7X7X7X7X7X7X7X7X7X7X7X7X7X7X7X7X@.( &.s.h.).D.7X7X7X7XU y.f.s.Y 7X7X7X7X7X7X7X7X7X7X",
"7X7X7X7X7X7X7X7X7X7X7X7X7X7X7X7X7X7X7X7X7X7X7X7X&.>.m.B.1.8.t.7X] ( <.S.l.D.).] 7X7X7X7X7X7X7X7X7X7X",
"7X7X7X7X7X7X7X7X7X7X7X7X7X7X7X7X7X7X7X7X7X7X7X7X7X7X7X7X7X7X7X7X` >.r.u.3.7X7X7X7X7X7X7X7X7X7X7X7X7X",
"7X7X7X7X7X7X7X7X7X7X7X7X7X7X7X7X7X7X7X7X7X7X7X7X7X7X7X7X7X7X7X7X7X7X7X7X7X7X7X7X7X7X7X7X7X7X7X7X7X7X"
};
