/* XPM */
static char *result[] = {
/* columns rows colors chars-per-pixel */
"50 50 210 2 ",
"   c #2A1E14",
".  c #2E2116",
"X  c #33251A",
"o  c #3A2A1D",
"O  c #35281D",
"+  c #3C2E22",
"@  c #3E3026",
"#  c #412B19",
"$  c #433326",
"%  c #45382E",
"&  c #45352A",
"*  c #573C26",
"=  c #564639",
"-  c #4F4338",
";  c #7E5126",
":  c #764F2A",
">  c #494946",
",  c #4E4D4B",
"<  c #484644",
"1  c #5A4D42",
"2  c #53514E",
"3  c #5F564E",
"4  c #555452",
"5  c #595755",
"6  c #5B5957",
"7  c #5E5D5B",
"8  c #655649",
"9  c #6B5B4C",
"0  c #625448",
"q  c #6D5E52",
"w  c #615C56",
"e  c #705F51",
"r  c #745C48",
"t  c #6F6053",
"y  c #6B625B",
"u  c #64605D",
"i  c #736355",
"p  c #746659",
"a  c #7B6A5D",
"s  c #77695D",
"d  c #7D634B",
"f  c #656463",
"g  c #6C6966",
"h  c #6D6C6A",
"j  c #696765",
"k  c #7D6E60",
"l  c #746E69",
"z  c #756B63",
"x  c #7E7165",
"c  c #7C726A",
"v  c #77716C",
"b  c #757473",
"n  c #7C7B78",
"m  c #7A7775",
"M  c #96591F",
"N  c #844D1A",
"B  c #8C5521",
"V  c #855426",
"C  c #9C5C21",
"Z  c #965C25",
"A  c #A25F20",
"S  c #AC6522",
"D  c #AA6727",
"F  c #B66C26",
"G  c #BF7126",
"H  c #BF7D3C",
"J  c #A56E3A",
"K  c #836E5E",
"L  c #8B6F55",
"P  c #A2754A",
"I  c #816F61",
"U  c #837265",
"Y  c #84766A",
"T  c #887669",
"R  c #8A7A6D",
"E  c #897769",
"W  c #917D6D",
"Q  c #837B74",
"!  c #8D7E72",
"~  c #817F7E",
"^  c #917F71",
"/  c #BB814A",
"(  c #8E8175",
")  c #84817E",
"_  c #8D847B",
"`  c #938275",
"'  c #9A8576",
"]  c #92857A",
"[  c #9B8A7D",
"{  c #97887C",
"}  c #A28D7D",
"|  c #A48B72",
" . c #C7915C",
".. c #D1A172",
"X. c #868583",
"o. c #898582",
"O. c #8A8885",
"+. c #8B8B89",
"@. c #948A82",
"#. c #9B8D82",
"$. c #928A84",
"%. c #92918E",
"&. c #9E9388",
"*. c #9E9085",
"=. c #959493",
"-. c #9C9B9A",
";. c #999694",
":. c #A38F81",
">. c #A39284",
",. c #AC9685",
"<. c #A3958A",
"1. c #A9978A",
"2. c #A5998E",
"3. c #AC9A8C",
"4. c #B39C8C",
"5. c #A59C92",
"6. c #AA9D92",
"7. c #A39F9B",
"8. c #B29F92",
"9. c #B9A08F",
"0. c #B7A08F",
"q. c #A3A09D",
"w. c #ACA39B",
"e. c #ADA197",
"r. c #B4A294",
"t. c #BBA393",
"y. c #B2A59B",
"u. c #BDAA9B",
"i. c #B5A99F",
"p. c #A4A4A3",
"a. c #ACACAB",
"s. c #B4ABA3",
"d. c #BAACA1",
"f. c #BDB1A6",
"g. c #BDB3AB",
"h. c #B7B1A8",
"j. c #AFB0B0",
"k. c #B3B3B3",
"l. c #BDB7B1",
"z. c #BCBCBC",
"x. c #B7B8B8",
"c. c #C3AB9B",
"v. c #C3A997",
"b. c #CAB09F",
"n. c #C0AEA0",
"m. c #C3B2A6",
"M. c #CCB3A3",
"N. c #C2B6AC",
"B. c #CAB7AA",
"V. c #C7B8AD",
"C. c #CAB9AC",
"Z. c #D3B8A7",
"A. c #D5BBA9",
"S. c #C4BCB4",
"D. c #CBBDB3",
"F. c #C5BFB9",
"G. c #D5BEB0",
"H. c #DDC1AF",
"J. c #CDC0B7",
"K. c #CBC2BB",
"L. c #DCC2B1",
"P. c #D3C5BB",
"I. c #DBC6B9",
"U. c #DECABB",
"Y. c #D5C2B4",
"T. c #E2C3AF",
"R. c #E3C6B4",
"E. c #E6C9B6",
"W. c #E6CAB9",
"Q. c #E9CCBB",
"!. c #EAD0BF",
"~. c #C3C3C3",
"^. c #CCCCCC",
"/. c #CCC7C1",
"(. c #D2CAC3",
"). c #DBCDC4",
"_. c #D5CFCA",
"`. c #DACFC8",
"'. c #DBD3CD",
"]. c #D5D2CF",
"[. c #D4D3D3",
"{. c #DED8D3",
"}. c #DBDBDB",
"|. c #DAD5D0",
" X c #EBD3C3",
".X c #E3D4CC",
"XX c #ECD7C9",
"oX c #EEDACD",
"OX c #E7D8CF",
"+X c #F1DCCE",
"@X c #E3DBD4",
"#X c #EDDDD3",
"$X c #E6DFD9",
"%X c #E2D7D0",
"&X c #F1DED2",
"*X c #E4E1DD",
"=X c #ECE2DC",
"-X c #F1E1D6",
";X c #F3E4DB",
":X c #F6E8DF",
">X c #E3E2E1",
",X c #EDE6E1",
"<X c #EEEAE6",
"1X c #F5EBE3",
"2X c #F5EEE9",
"3X c #F6EBE4",
"4X c #F6F1ED",
"5X c #F8F2ED",
"6X c #F9F5F1",
"7X c None",
/* pixels */
"7X7X7X7X7X7X7X7X7X7X7X7X7X7X7X7X7X7X7X7X7X7X7X7X7X7X7X7X7X7X7X7X7X7X7X7X7X7X7X7X7X7X7X7X7X7X7X7X7X7X",
"7X7X7X7X7X7X7X7X7X7X7X7X7X7X7X7X7X7X7X7X7X7X7X7X7X7X7X7X7X7X7X7X7X7X7X7X7X7X7X7X7X7X7X7X7X7X7X7X7X7X",
"7X7X7X7X7X7X7X7X7X7X7X7Xe a R ] #.<.>.#.( x i 7X7X7X7X7X7X7X7X7X7X7X7X7X7X7X7X7X7X7X7X7X7X7X7X7X7X7X",
"7X7X7X7X7X7X7X7X7Xr U } m.).#X=X;X1X1X1X,X$X(.y.! 9 7X7X7X7X7X7X7X7X7X7X7X7X7X7X7X7X7X7X7X7X7X7X7X7X",
"7X7X7X7X7X7X7X8 U 8.T.Q.+X1X;X1X,X1X1X1X3X2X5X5X<XS.R 8 7X7X7X7X7X7X7X7X7X7X7X7X7X7X7X7X7X7X7X7X7X7X",
"7X7X7X7X7X7X9 ' H.Q.E.E.oX&X;X;X;X:X1X,X1X1X*X4X5X6X,X;.9 7X7X7X7X7X7X7X7X7X7X7X7X7X7X7X7X7X7X7X7X7X",
"7X7X7X7X7X8 ' R.Q.E.W.W.XX&X;X;X;X1X:X1X1X3X_.'.5X4X6X4X5.9 7X7X7X7X7X7X7X7X7X7X7X7X7X7X7X7X7X7X7X7X",
"7X7X7X7X7XT H.W.E.E.E.Q. X&X&X;X;X;X;X1X1X3X3X(.,X4X5X6X<X_ 7X7X7X7X7X7X7X7X7X7X7X7X7X7X7X7X7X7X7X7X",
"7X7X7X7Xr c.Q.W.W.E.Q.E.E.oX&X;X;X;X;X:X1X1X3X1X<X4X4X4X4Xs.t 7X7X7X7X7X7X7X7X7X7X7X7X7X7X7X7X7X7X7X",
"7X7X7X7XW E.W.Q.E.E.W.Q.E.Q.&X;X;X:X;X:X:X1X1X4X3X4X5X6X>Xh.( 7X7X7X7X7X7X7X7X7X7X7X7X7X< > > 7X7X7X",
"7X7X7X9 9.Q.W.W.E.T.4.4.v.v.4.8.d.(.-X:X1X:X1X1X4X4X5X@Xs.l.s.7X7X7X7X7X7X7X7X7X7X> < 4 n h , 7X7X7X",
"7X7X7Xi Z.E.W.W.E.T.T.Z.8.9 + X + - x f.*X1X3X1X3X_.] 1 + 1 w.q 7X7X7X7X7X7X7X7X> 7 +.z.}.-., < 7X7X",
"7X7X7XT R.E.W.W.E.W.Q.Q.4.#           & t e.@X3X,Xs .     . @.s 7X7X7X7X7X7X7X7X5 z.}.>X^.a.j > 7X7X",
"7X7X7X` !.Q.W.W.E.W.E.E.K X               o [ 3X{.-       . @.x 7X7X7X7X7X7X7X7Xh ^.}.>Xx.k.%., 7X7X",
"7X7X7X[ XX!.W.W.W.Q.E.A.= .                 9 =X`.%       . o.U 7X7X7X7X7X7X7X, -.[.>X^.k.k.+., 7X7X",
"7X7X7X} oX XQ.Q.W.E.Q.4.$               . . p =X`.%       . _ U 7X7X7X7X7X7X7Xh ^.}.>Xz.k.a.f 7X7X7X",
"7X7X7X` oXoXQ.Q.W.E.Q.,.o             .   X ] 1X.X-         @.k 7X7X7X7X7X7X> -.}.>X^.k.k.O., 7X7X7X",
"7X7X7XY OXoXXX XQ.W.W.Z.i & X .           & N.3X@Xi . . X 1 w.i 7X7X7X7X7X7X6 z.}.$Xz.k.a.7 7X7X7X7X",
"7X7X7Xi P.;XoXoX!.W.W.Q.!.u.T = $ X .   X R #X;X] <.#.{ w.@XF.8 7X7X7X7X7X7XX.[.}.[.k.k.X.> 7X7X7X7X",
"7X7X7X7X2.-X-XoX!.T.E.W. X&XoXU.n.>.R U [ .X1XN.+ q ,X2X2X6Xw.7X7X7X7X7X7X4 x.}.>X~.k.p.7 7X7X7X7X7X",
"7X7X7X7Xp D.-X#X+X!.W.W.E.!.+X+X&X&X&X#X;X;X#Xq   X s.3X2X4X] 7X7X7X7X7X7Xb [.}.[.k.k.~ < 7X7X7X7X7X",
"7X7X7X7X7XY N.OX+XW.Q.Q.E.E.!.+X&X&X&X&X&X;XD.@     ] 1X2X$Xk 7X7X7X7X7X, p.}.>X~.k.p.5 7X7X7X7X7X7X",
"7X7X7X7X7X7XQ -X-XXXXX XT.T.W.Q. X&XXXoX&X-XOXa + 0 P.1X2X].i 7X7X7X7X7Xf ^.}.[.k.k.n > 7X7X7X7X7X7X",
"7X7X7X7X7X7Xp P.1X-X+XXXQ.E.W.W.E. XG.n. X+X;X.XB.`.1X,Xy.] 9 7X7X7X7X7X%.[.}.~.k.q.5 7X7X7X7X7X7X7X",
"7X7X7X7X7X7X7X#.,X:X;X&X XE.W.W.E.W.v.[ E. X-X:X1X;X$X,X! 7X7X7X7X7X7X6 z.}.[.x.k.m 7X7X7X7X7X7X7X7X",
"7X7X7X7X7X7X7Xw O.7.f.D.W.R.Q.L.v.,.6.! v.Q.oX).&X;X).{.@.7X7X7X7X7X7X) [.}.~.k.-.4 7X7X7X7X7X7X7X7X",
"7X7X7X7X7X7X7X7X5 -.=.b m r.,.R 9 <.2X6.U Z.Q.m..XOXf.5.a 7X7X7X7X7X2 a.}.}.k.j.b 7X7X7X7X7X7X7X7X7X",
"7X7X7X7X7X7X7X7X5 o.j.7.g , 7X7X7X3.oX[ 7XI W U R Y q 8 7X7XB B 7X7Xb ^.}.~.k.-.4 7X7X7X7X7X7X7X7X7X",
"7X7X7X7X7X7Xf =.a.=.=.7.=.4 p c i 4.M.T x p t x 7X7X7X7X7X7XC D S N L S.].x.j.h 7X7X7X7X7X7X7X7X7X7X",
"7X7X7X7X7X7X7Xm =.7.;.;.~ w /.@X(.6.r.'.@X'.s.F.l.k 7X7X7X; C G G H / J P | @.2 7X7X7X7X7X7X7X7X7X7X",
"7X7X7X7X7X7X+.-.X.X.o.X.4 #.W.R.W.8.u.W.E.W.B.S.5XK.U 7X7Xx L V M F  .../ S Z B 7X7X7X7X7X7X7X7X7X7X",
"7X7X7X7X7X, m =.=.n j 5 0 R R R ^ k I ! R W U >.Q.XXc.e 4 g Q y.K : N Z F G G F A B 7X7X7X7X7X7X7X7X",
"7X7X7X7X7X7Xy Q c l h < c '.{.'.$Xi.g.$X'.@X(.a } H.t.8 ~ $.e.@Xq.e.[ d ; M S S S 7X7X7X7X7X7X7X7X7X",
"7X7X7X7X7X7X( P.y.8 > 7Xa c.W.Q.Y.` <.R.Q.U.r.7X7X^ c h X.{ L.t.y.).XXI.` 7X7XM B 7X7X7X7X7X7X7X7X7X",
"7X7X7X7X7X7X&.*X|.c 7X7Xt Y U U U Y Y K K T Y 7X7X7X7Xl z x 4.6.F.f.e.} U 7X7X7X7X7X7X7X7X7X7X7X7X7X",
"7X7X7X7X7X7Xe.3X@XY 7X7XY |.g.y.{.l.(.K.w._.(.7X7X7X7X7Xu y q 2.D.).W.[ 7X7X7X7X7X7X7X7X7X7X7X7X7X7X",
"7X7X7X7X7X7X>.!.L.U 7X7Xi B.oX+XXX] r.+X+XoXr.7X7X7X7X7Xu l s.*XD.[ W U 7X7X7X7X7X7X7X7X7X7X7X7X7X7X",
"7X7X7X7X7X7XR R.L.I 0 7X7XT v.M.} 9 ! t.Z.,.7X7X7X7X7X7Xw ) Y r.W.Y.T 7X7X7X7X7X7X7X7X7X7X7X7X7X7X7X",
"7X7X7X7X7X7XR 4.1.] 2.Y ` 7XY i.f.p h.y.! q 7X7X7X7X7X7Xu l % * r ' K 7X7X7X7X7X7X7X7X7X7X7X7X7X7X7X",
"7X7X7X7X7X5.z.K.s.F.4X3.c.i e.:XJ.9 5.;X).Y 7X7X7X7X7X7X7X7X7X# X 7X7X7X7X7X7X7X7X7X7X7X7X7X7X7X7X7X",
"7X7X7X7X7Xy.V.Y.C.4.XX,.K 9 0.W.1.7X7XB.A.` 7X7X7X7X7X7X7X7X7X7X7X7X7X7X7X7X7X7X7X7X7X7X7X7X7X7X7X7X",
"7X7X7X7X7X' M.t.H.` M.4.8 i >.m.I 7Xw Q $._ g 7X7X7X7X7X7X7X7X7X7X7X7X7X7X7X7X7X7X7X7X7X7X7X7X7X7X7X",
"7X7X7X7X7X7X} R >.a a a i s.f.r.9 7Xw v ~ o.g 7X7X7X7X7X7X7X7X7X7X7X7X7X7X7X7X7X7X7X7X7X7X7X7X7X7X7X",
"7X7X7X7X7X7X7X7X7X7X7X7XR *X*X#.7X7X7X@.D.f.7X7X7X7X7X7X7X7X7X7X7X7X7X7X7X7X7X7X7X7X7X7X7X7X7X7X7X7X",
"7X7X7X7X7X7X7X7X7X7X7X7X}  XI.T 7X7X7X}  XA.7X7X7X7X7X7X7X7X7X7X7X7X7X7X7X7X7X7X7X7X7X7X7X7X7X7X7X7X",
"7X7X7X7X7X7X7X7X7X7X7X7X0.E.4.7X7X7X7X( M.r.s 7X7X7X7X7X7X7X7X7X7X7X7X7X7X7X7X7X7X7X7X7X7X7X7X7X7X7X",
"7X7X7X7X7X7X7X7X7X7XY w.f.y.U 7X7X7X7XD.`.g.s.&.( @.7X7X7X7X7X7X7X7X7X7X7X7X7X7X7X7X7X7X7X7X7X7X7X7X",
"7X7X7X7X7X7X7X7X7X7X] `.D.N.S.<.( ] 7Xr.4.1.C.m.>.>.7X7X7X7X7X7X7X7X7X7X7X7X7X7X7X7X7X7X7X7X7X7X7X7X",
"7X7X7X7X7X7X7X7X7X7X7X7X7X3.u.r.<.` 7X7X7X7X7X7X7X7X7X7X7X7X7X7X7X7X7X7X7X7X7X7X7X7X7X7X7X7X7X7X7X7X",
"7X7X7X7X7X7X7X7X7X7X7X7X7X7X7X7X7X7X7X7X7X7X7X7X7X7X7X7X7X7X7X7X7X7X7X7X7X7X7X7X7X7X7X7X7X7X7X7X7X7X"
};
